<mxfile host="65bd71144e">
    <diagram id="0FEgr9oBnAWYvqsZ_IJt" name="Page-1">
        <mxGraphModel dx="1130" dy="536" grid="1" gridSize="10" guides="1" tooltips="1" connect="1" arrows="1" fold="1" page="1" pageScale="1" pageWidth="850" pageHeight="1100" math="0" shadow="0">
            <root>
                <mxCell id="0"/>
                <mxCell id="1" parent="0"/>
                <mxCell id="10" value="" style="edgeStyle=none;html=1;fontSize=30;" parent="1" source="2" target="3" edge="1">
                    <mxGeometry relative="1" as="geometry"/>
                </mxCell>
                <mxCell id="2" value="&lt;font style=&quot;font-size: 30px;&quot;&gt;Begin&lt;/font&gt;" style="strokeWidth=2;html=1;shape=mxgraph.flowchart.terminator;whiteSpace=wrap;" parent="1" vertex="1">
                    <mxGeometry x="320" y="80" width="210" height="100" as="geometry"/>
                </mxCell>
                <mxCell id="11" value="" style="edgeStyle=none;html=1;fontSize=30;" parent="1" source="3" target="4" edge="1">
                    <mxGeometry relative="1" as="geometry"/>
                </mxCell>
                <mxCell id="3" value="Score" style="html=1;strokeWidth=2;shape=manualInput;whiteSpace=wrap;rounded=1;size=26;arcSize=11;fontSize=30;" parent="1" vertex="1">
                    <mxGeometry x="335" y="240" width="180" height="100" as="geometry"/>
                </mxCell>
                <mxCell id="9" style="edgeStyle=none;html=1;fontSize=30;" parent="1" source="4" target="5" edge="1">
                    <mxGeometry relative="1" as="geometry">
                        <Array as="points">
                            <mxPoint x="210" y="470"/>
                        </Array>
                    </mxGeometry>
                </mxCell>
                <mxCell id="13" style="edgeStyle=none;html=1;entryX=0.598;entryY=0.017;entryDx=0;entryDy=0;entryPerimeter=0;fontSize=30;" parent="1" source="4" target="14" edge="1">
                    <mxGeometry relative="1" as="geometry">
                        <mxPoint x="674.28" y="608.8800000000001" as="targetPoint"/>
                        <Array as="points">
                            <mxPoint x="670" y="470"/>
                        </Array>
                    </mxGeometry>
                </mxCell>
                <mxCell id="4" value="Score&amp;gt;=50" style="strokeWidth=2;html=1;shape=mxgraph.flowchart.decision;whiteSpace=wrap;fontSize=30;" parent="1" vertex="1">
                    <mxGeometry x="311.25" y="400" width="227.5" height="140" as="geometry"/>
                </mxCell>
                <mxCell id="15" style="edgeStyle=none;html=1;fontSize=30;exitX=0.5;exitY=1;exitDx=0;exitDy=0;exitPerimeter=0;entryX=0;entryY=0.5;entryDx=0;entryDy=0;entryPerimeter=0;" parent="1" source="5" target="30" edge="1">
                    <mxGeometry relative="1" as="geometry">
                        <mxPoint x="420" y="850" as="targetPoint"/>
                        <Array as="points">
                            <mxPoint x="210" y="850"/>
                        </Array>
                    </mxGeometry>
                </mxCell>
                <mxCell id="5" value="print('Pass')" style="strokeWidth=2;html=1;shape=mxgraph.flowchart.display;whiteSpace=wrap;fontSize=30;" parent="1" vertex="1">
                    <mxGeometry x="110" y="610" width="200" height="130" as="geometry"/>
                </mxCell>
                <mxCell id="17" value="" style="edgeStyle=none;html=1;fontSize=30;exitX=0.615;exitY=1.006;exitDx=0;exitDy=0;exitPerimeter=0;entryX=1;entryY=0.5;entryDx=0;entryDy=0;entryPerimeter=0;" parent="1" source="14" target="30" edge="1">
                    <mxGeometry relative="1" as="geometry">
                        <mxPoint x="450" y="850" as="targetPoint"/>
                        <Array as="points">
                            <mxPoint x="673" y="850"/>
                        </Array>
                    </mxGeometry>
                </mxCell>
                <mxCell id="14" value="print('Fail')" style="strokeWidth=2;html=1;shape=mxgraph.flowchart.display;whiteSpace=wrap;fontSize=30;" parent="1" vertex="1">
                    <mxGeometry x="550" y="620" width="200" height="130" as="geometry"/>
                </mxCell>
                <mxCell id="21" value="&lt;span style=&quot;font-size: 30px;&quot;&gt;End&lt;/span&gt;" style="strokeWidth=2;html=1;shape=mxgraph.flowchart.terminator;whiteSpace=wrap;" parent="1" vertex="1">
                    <mxGeometry x="320" y="940" width="210" height="100" as="geometry"/>
                </mxCell>
                <mxCell id="24" value="True" style="text;html=1;strokeColor=none;fillColor=none;align=center;verticalAlign=middle;whiteSpace=wrap;rounded=0;fontSize=30;" parent="1" vertex="1">
                    <mxGeometry x="240" y="430" width="60" height="30" as="geometry"/>
                </mxCell>
                <mxCell id="27" value="False" style="text;html=1;strokeColor=none;fillColor=none;align=center;verticalAlign=middle;whiteSpace=wrap;rounded=0;fontSize=30;" parent="1" vertex="1">
                    <mxGeometry x="570" y="430" width="60" height="30" as="geometry"/>
                </mxCell>
                <mxCell id="36" value="" style="edgeStyle=none;html=1;fontSize=30;" parent="1" source="30" target="21" edge="1">
                    <mxGeometry relative="1" as="geometry"/>
                </mxCell>
                <mxCell id="30" value="" style="verticalLabelPosition=bottom;verticalAlign=top;html=1;shape=mxgraph.flowchart.on-page_reference;fontSize=30;fillColor=default;gradientColor=none;" parent="1" vertex="1">
                    <mxGeometry x="415" y="840" width="20" height="20" as="geometry"/>
                </mxCell>
            </root>
        </mxGraphModel>
    </diagram>
</mxfile>